<?xml version="1.0" encoding="UTF-8" standalone="no"?>
<!DOCTYPE svg PUBLIC "-//W3C//DTD SVG 1.1//EN"
 "http://www.w3.org/Graphics/SVG/1.1/DTD/svg11.dtd">
<!-- Generated by graphviz version 2.36.0 (20140111.2315)
 -->
<!-- Title: G Pages: 1 -->
<svg width="332pt" height="200pt"
 viewBox="0.00 0.00 332.00 200.00" xmlns="http://www.w3.org/2000/svg" xmlns:xlink="http://www.w3.org/1999/xlink">
<g id="graph0" class="graph" transform="scale(1 1) rotate(0) translate(4 196)">
<title>G</title>
<polygon fill="white" stroke="none" points="-4,4 -4,-196 328,-196 328,4 -4,4"/>
<g id="clust1" class="cluster"><title>cluster_Global</title>
<path fill="none" stroke="gray" d="M20,-8C20,-8 304,-8 304,-8 310,-8 316,-14 316,-20 316,-20 316,-172 316,-172 316,-178 310,-184 304,-184 304,-184 20,-184 20,-184 14,-184 8,-178 8,-172 8,-172 8,-20 8,-20 8,-14 14,-8 20,-8"/>
<text text-anchor="middle" x="162" y="-171.2" font-family="Times,serif" font-size="11.00" fill="gray">Global</text>
</g>
<g id="clust2" class="cluster"><title>cluster_\Droit</title>
<path fill="none" stroke="gray" d="M28,-16C28,-16 296,-16 296,-16 302,-16 308,-22 308,-28 308,-28 308,-145 308,-145 308,-151 302,-157 296,-157 296,-157 28,-157 28,-157 22,-157 16,-151 16,-145 16,-145 16,-28 16,-28 16,-22 22,-16 28,-16"/>
<text text-anchor="middle" x="162" y="-144.2" font-family="Times,serif" font-size="11.00" fill="gray">Droit</text>
</g>
<g id="clust3" class="cluster"><title>cluster_\Droit\Repo</title>
<path fill="none" stroke="gray" d="M36,-24C36,-24 288,-24 288,-24 294,-24 300,-30 300,-36 300,-36 300,-118 300,-118 300,-124 294,-130 288,-130 288,-130 36,-130 36,-130 30,-130 24,-124 24,-118 24,-118 24,-36 24,-36 24,-30 30,-24 36,-24"/>
<text text-anchor="middle" x="162" y="-117.2" font-family="Times,serif" font-size="11.00" fill="gray">Repo</text>
</g>
<g id="clust4" class="cluster"><title>cluster_\Droit\Repo\Search</title>
<path fill="none" stroke="gray" d="M44,-32C44,-32 280,-32 280,-32 286,-32 292,-38 292,-44 292,-44 292,-91 292,-91 292,-97 286,-103 280,-103 280,-103 44,-103 44,-103 38,-103 32,-97 32,-91 32,-91 32,-44 32,-44 32,-38 38,-32 44,-32"/>
<text text-anchor="middle" x="162" y="-90.2" font-family="Times,serif" font-size="11.00" fill="gray">Search</text>
</g>
<!-- \\Droit\\Repo\\Search\\SearchEloquent -->
<g id="node1" class="node"><title>\\Droit\\Repo\\Search\\SearchEloquent</title>
<polygon fill="none" stroke="black" points="283.642,-76 198.358,-76 198.358,-40 283.642,-40 283.642,-76"/>
<text text-anchor="middle" x="241" y="-54.7" font-family="Times,serif" font-size="11.00">SearchEloquent</text>
</g>
<!-- \\Droit\\Repo\\Search\\SearchInterface -->
<g id="node2" class="node"><title>\\Droit\\Repo\\Search\\SearchInterface</title>
<polygon fill="none" stroke="black" points="125.502,-76 40.4976,-76 40.4976,-40 125.502,-40 125.502,-76"/>
<text text-anchor="middle" x="83" y="-54.7" font-family="Times,serif" font-size="11.00">SearchInterface</text>
</g>
<!-- \\Droit\\Repo\\Search\\SearchEloquent&#45;&gt;\\Droit\\Repo\\Search\\SearchInterface -->
<g id="edge1" class="edge"><title>\\Droit\\Repo\\Search\\SearchEloquent&#45;&gt;\\Droit\\Repo\\Search\\SearchInterface</title>
<path fill="none" stroke="black" stroke-dasharray="1,5" d="M198.195,-58C178.97,-58 155.976,-58 135.677,-58"/>
<polygon fill="none" stroke="black" points="135.65,-54.5001 125.65,-58 135.65,-61.5001 135.65,-54.5001"/>
</g>
</g>
</svg>
